<mxfile host="drawio-plugin" modified="2023-01-04T17:51:50.705Z" agent="5.0 (Windows NT 6.2; Win64; x64) AppleWebKit/537.36 (KHTML, like Gecko) Chrome/98.0.4758.102 Safari/537.36" etag="35kut4G1DrmKt3JiIW1o" version="20.5.3" type="embed"><diagram id="C5RBs43oDa-KdzZeNtuy" name="Page-1"><mxGraphModel dx="1113" dy="2182" grid="1" gridSize="10" guides="1" tooltips="1" connect="1" arrows="1" fold="1" page="1" pageScale="1" pageWidth="1169" pageHeight="1654" math="0" shadow="0"><root><mxCell id="WIyWlLk6GJQsqaUBKTNV-0"/><mxCell id="WIyWlLk6GJQsqaUBKTNV-1" parent="WIyWlLk6GJQsqaUBKTNV-0"/><mxCell id="Y8OMOmDXyRQ8DpYTq-QE-0" value="Class" style="swimlane;fontStyle=1;align=center;verticalAlign=top;childLayout=stackLayout;horizontal=1;startSize=20;horizontalStack=0;resizeParent=1;resizeParentMax=0;resizeLast=0;collapsible=1;marginBottom=0;" parent="WIyWlLk6GJQsqaUBKTNV-1" vertex="1"><mxGeometry x="60" y="60" width="160" height="110" as="geometry"><mxRectangle x="330" y="390" width="70" height="30" as="alternateBounds"/></mxGeometry></mxCell><mxCell id="Y8OMOmDXyRQ8DpYTq-QE-1" value="+ name: Type&#10;+ fields: Vector&lt;Field&gt;&#10;+ meths: Vector&lt;Method&gt;" style="text;strokeColor=none;fillColor=none;align=left;verticalAlign=top;spacingLeft=4;spacingRight=4;overflow=hidden;rotatable=0;points=[[0,0.5],[1,0.5]];portConstraint=eastwest;" parent="Y8OMOmDXyRQ8DpYTq-QE-0" vertex="1"><mxGeometry y="20" width="160" height="54" as="geometry"/></mxCell><mxCell id="Y8OMOmDXyRQ8DpYTq-QE-2" value="" style="line;strokeWidth=1;fillColor=none;align=left;verticalAlign=middle;spacingTop=-1;spacingLeft=3;spacingRight=3;rotatable=0;labelPosition=right;points=[];portConstraint=eastwest;strokeColor=inherit;" parent="Y8OMOmDXyRQ8DpYTq-QE-0" vertex="1"><mxGeometry y="74" width="160" height="8" as="geometry"/></mxCell><mxCell id="Y8OMOmDXyRQ8DpYTq-QE-3" value="+ codeGen(): void" style="text;strokeColor=none;fillColor=none;align=left;verticalAlign=top;spacingLeft=4;spacingRight=4;overflow=hidden;rotatable=0;points=[[0,0.5],[1,0.5]];portConstraint=eastwest;" parent="Y8OMOmDXyRQ8DpYTq-QE-0" vertex="1"><mxGeometry y="82" width="160" height="28" as="geometry"/></mxCell><mxCell id="Y8OMOmDXyRQ8DpYTq-QE-4" value="Field" style="swimlane;fontStyle=1;align=center;verticalAlign=top;childLayout=stackLayout;horizontal=1;startSize=26;horizontalStack=0;resizeParent=1;resizeParentMax=0;resizeLast=0;collapsible=1;marginBottom=0;" parent="WIyWlLk6GJQsqaUBKTNV-1" vertex="1"><mxGeometry x="100" y="200" width="160" height="78" as="geometry"/></mxCell><mxCell id="Y8OMOmDXyRQ8DpYTq-QE-5" value="+ name: String&#10;+ type: Type" style="text;strokeColor=none;fillColor=none;align=left;verticalAlign=top;spacingLeft=4;spacingRight=4;overflow=hidden;rotatable=0;points=[[0,0.5],[1,0.5]];portConstraint=eastwest;" parent="Y8OMOmDXyRQ8DpYTq-QE-4" vertex="1"><mxGeometry y="26" width="160" height="44" as="geometry"/></mxCell><mxCell id="Y8OMOmDXyRQ8DpYTq-QE-6" value="" style="line;strokeWidth=1;fillColor=none;align=left;verticalAlign=middle;spacingTop=-1;spacingLeft=3;spacingRight=3;rotatable=0;labelPosition=right;points=[];portConstraint=eastwest;strokeColor=inherit;" parent="Y8OMOmDXyRQ8DpYTq-QE-4" vertex="1"><mxGeometry y="70" width="160" height="8" as="geometry"/></mxCell><mxCell id="Y8OMOmDXyRQ8DpYTq-QE-168" style="edgeStyle=orthogonalEdgeStyle;rounded=0;orthogonalLoop=1;jettySize=auto;html=1;entryX=1;entryY=0.25;entryDx=0;entryDy=0;endFill=0;" parent="WIyWlLk6GJQsqaUBKTNV-1" source="Y8OMOmDXyRQ8DpYTq-QE-8" target="Y8OMOmDXyRQ8DpYTq-QE-20" edge="1"><mxGeometry relative="1" as="geometry"><Array as="points"><mxPoint x="280" y="254"/><mxPoint x="280" y="508"/></Array></mxGeometry></mxCell><mxCell id="Y8OMOmDXyRQ8DpYTq-QE-8" value="Method" style="swimlane;fontStyle=1;align=center;verticalAlign=top;childLayout=stackLayout;horizontal=1;startSize=26;horizontalStack=0;resizeParent=1;resizeParentMax=0;resizeLast=0;collapsible=1;marginBottom=0;" parent="WIyWlLk6GJQsqaUBKTNV-1" vertex="1"><mxGeometry x="290" y="200" width="180" height="108" as="geometry"/></mxCell><mxCell id="Y8OMOmDXyRQ8DpYTq-QE-9" value="+ name: String&#10;+ rtype: Type&#10;+ params: Vector&lt;Parameter&gt;&#10;+ code: Statement" style="text;strokeColor=none;fillColor=none;align=left;verticalAlign=top;spacingLeft=4;spacingRight=4;overflow=hidden;rotatable=0;points=[[0,0.5],[1,0.5]];portConstraint=eastwest;" parent="Y8OMOmDXyRQ8DpYTq-QE-8" vertex="1"><mxGeometry y="26" width="180" height="74" as="geometry"/></mxCell><mxCell id="Y8OMOmDXyRQ8DpYTq-QE-10" value="" style="line;strokeWidth=1;fillColor=none;align=left;verticalAlign=middle;spacingTop=-1;spacingLeft=3;spacingRight=3;rotatable=0;labelPosition=right;points=[];portConstraint=eastwest;strokeColor=inherit;" parent="Y8OMOmDXyRQ8DpYTq-QE-8" vertex="1"><mxGeometry y="100" width="180" height="8" as="geometry"/></mxCell><mxCell id="Y8OMOmDXyRQ8DpYTq-QE-12" value="Type" style="swimlane;fontStyle=1;align=center;verticalAlign=top;childLayout=stackLayout;horizontal=1;startSize=26;horizontalStack=0;resizeParent=1;resizeParentMax=0;resizeLast=0;collapsible=1;marginBottom=0;" parent="WIyWlLk6GJQsqaUBKTNV-1" vertex="1"><mxGeometry x="630" y="380" width="160" height="60" as="geometry"/></mxCell><mxCell id="Y8OMOmDXyRQ8DpYTq-QE-13" value="+ name: String" style="text;strokeColor=none;fillColor=none;align=left;verticalAlign=top;spacingLeft=4;spacingRight=4;overflow=hidden;rotatable=0;points=[[0,0.5],[1,0.5]];portConstraint=eastwest;" parent="Y8OMOmDXyRQ8DpYTq-QE-12" vertex="1"><mxGeometry y="26" width="160" height="26" as="geometry"/></mxCell><mxCell id="Y8OMOmDXyRQ8DpYTq-QE-14" value="" style="line;strokeWidth=1;fillColor=none;align=left;verticalAlign=middle;spacingTop=-1;spacingLeft=3;spacingRight=3;rotatable=0;labelPosition=right;points=[];portConstraint=eastwest;strokeColor=inherit;" parent="Y8OMOmDXyRQ8DpYTq-QE-12" vertex="1"><mxGeometry y="52" width="160" height="8" as="geometry"/></mxCell><mxCell id="Y8OMOmDXyRQ8DpYTq-QE-126" style="edgeStyle=orthogonalEdgeStyle;rounded=0;orthogonalLoop=1;jettySize=auto;html=1;entryX=0;entryY=0.25;entryDx=0;entryDy=0;endFill=0;" parent="WIyWlLk6GJQsqaUBKTNV-1" source="Y8OMOmDXyRQ8DpYTq-QE-16" target="Y8OMOmDXyRQ8DpYTq-QE-57" edge="1"><mxGeometry relative="1" as="geometry"/></mxCell><mxCell id="Y8OMOmDXyRQ8DpYTq-QE-127" style="edgeStyle=orthogonalEdgeStyle;rounded=0;orthogonalLoop=1;jettySize=auto;html=1;entryX=0;entryY=0.25;entryDx=0;entryDy=0;endFill=0;" parent="WIyWlLk6GJQsqaUBKTNV-1" source="Y8OMOmDXyRQ8DpYTq-QE-16" target="Y8OMOmDXyRQ8DpYTq-QE-60" edge="1"><mxGeometry relative="1" as="geometry"/></mxCell><mxCell id="Y8OMOmDXyRQ8DpYTq-QE-128" style="edgeStyle=orthogonalEdgeStyle;rounded=0;orthogonalLoop=1;jettySize=auto;html=1;entryX=0;entryY=0.25;entryDx=0;entryDy=0;endFill=0;" parent="WIyWlLk6GJQsqaUBKTNV-1" source="Y8OMOmDXyRQ8DpYTq-QE-16" target="Y8OMOmDXyRQ8DpYTq-QE-63" edge="1"><mxGeometry relative="1" as="geometry"/></mxCell><mxCell id="Y8OMOmDXyRQ8DpYTq-QE-129" style="edgeStyle=orthogonalEdgeStyle;rounded=0;orthogonalLoop=1;jettySize=auto;html=1;entryX=0;entryY=0.25;entryDx=0;entryDy=0;endFill=0;" parent="WIyWlLk6GJQsqaUBKTNV-1" source="Y8OMOmDXyRQ8DpYTq-QE-16" target="Y8OMOmDXyRQ8DpYTq-QE-73" edge="1"><mxGeometry relative="1" as="geometry"/></mxCell><mxCell id="Y8OMOmDXyRQ8DpYTq-QE-131" style="edgeStyle=orthogonalEdgeStyle;rounded=0;orthogonalLoop=1;jettySize=auto;html=1;entryX=0;entryY=0.25;entryDx=0;entryDy=0;endFill=0;" parent="WIyWlLk6GJQsqaUBKTNV-1" source="Y8OMOmDXyRQ8DpYTq-QE-16" target="Y8OMOmDXyRQ8DpYTq-QE-76" edge="1"><mxGeometry relative="1" as="geometry"/></mxCell><mxCell id="Y8OMOmDXyRQ8DpYTq-QE-132" style="edgeStyle=orthogonalEdgeStyle;rounded=0;orthogonalLoop=1;jettySize=auto;html=1;entryX=0;entryY=0.25;entryDx=0;entryDy=0;endFill=0;" parent="WIyWlLk6GJQsqaUBKTNV-1" source="Y8OMOmDXyRQ8DpYTq-QE-16" target="Y8OMOmDXyRQ8DpYTq-QE-80" edge="1"><mxGeometry relative="1" as="geometry"/></mxCell><mxCell id="Y8OMOmDXyRQ8DpYTq-QE-133" style="edgeStyle=orthogonalEdgeStyle;rounded=0;orthogonalLoop=1;jettySize=auto;html=1;entryX=0;entryY=0.25;entryDx=0;entryDy=0;endFill=0;" parent="WIyWlLk6GJQsqaUBKTNV-1" source="Y8OMOmDXyRQ8DpYTq-QE-16" target="Y8OMOmDXyRQ8DpYTq-QE-107" edge="1"><mxGeometry relative="1" as="geometry"/></mxCell><mxCell id="Y8OMOmDXyRQ8DpYTq-QE-141" style="edgeStyle=orthogonalEdgeStyle;rounded=0;orthogonalLoop=1;jettySize=auto;html=1;entryX=0;entryY=0.25;entryDx=0;entryDy=0;" parent="WIyWlLk6GJQsqaUBKTNV-1" source="Y8OMOmDXyRQ8DpYTq-QE-16" target="Y8OMOmDXyRQ8DpYTq-QE-12" edge="1"><mxGeometry relative="1" as="geometry"/></mxCell><mxCell id="Y8OMOmDXyRQ8DpYTq-QE-16" value="Expression" style="swimlane;fontStyle=3;align=center;verticalAlign=top;childLayout=stackLayout;horizontal=1;startSize=26;horizontalStack=0;resizeParent=1;resizeParentMax=0;resizeLast=0;collapsible=1;marginBottom=0;" parent="WIyWlLk6GJQsqaUBKTNV-1" vertex="1"><mxGeometry x="480" y="493" width="160" height="60" as="geometry"/></mxCell><mxCell id="Y8OMOmDXyRQ8DpYTq-QE-18" value="" style="line;strokeWidth=1;fillColor=none;align=left;verticalAlign=middle;spacingTop=-1;spacingLeft=3;spacingRight=3;rotatable=0;labelPosition=right;points=[];portConstraint=eastwest;strokeColor=inherit;" parent="Y8OMOmDXyRQ8DpYTq-QE-16" vertex="1"><mxGeometry y="26" width="160" height="8" as="geometry"/></mxCell><mxCell id="Y8OMOmDXyRQ8DpYTq-QE-19" value="+ codeGen(): void" style="text;strokeColor=none;fillColor=none;align=left;verticalAlign=top;spacingLeft=4;spacingRight=4;overflow=hidden;rotatable=0;points=[[0,0.5],[1,0.5]];portConstraint=eastwest;fontStyle=0" parent="Y8OMOmDXyRQ8DpYTq-QE-16" vertex="1"><mxGeometry y="34" width="160" height="26" as="geometry"/></mxCell><mxCell id="Y8OMOmDXyRQ8DpYTq-QE-118" style="edgeStyle=orthogonalEdgeStyle;rounded=0;orthogonalLoop=1;jettySize=auto;html=1;entryX=0;entryY=0.25;entryDx=0;entryDy=0;endFill=0;" parent="WIyWlLk6GJQsqaUBKTNV-1" source="Y8OMOmDXyRQ8DpYTq-QE-20" target="Y8OMOmDXyRQ8DpYTq-QE-28" edge="1"><mxGeometry relative="1" as="geometry"/></mxCell><mxCell id="Y8OMOmDXyRQ8DpYTq-QE-119" style="edgeStyle=orthogonalEdgeStyle;rounded=0;orthogonalLoop=1;jettySize=auto;html=1;entryX=0;entryY=0.25;entryDx=0;entryDy=0;endFill=0;" parent="WIyWlLk6GJQsqaUBKTNV-1" source="Y8OMOmDXyRQ8DpYTq-QE-20" target="Y8OMOmDXyRQ8DpYTq-QE-32" edge="1"><mxGeometry relative="1" as="geometry"/></mxCell><mxCell id="Y8OMOmDXyRQ8DpYTq-QE-120" style="edgeStyle=orthogonalEdgeStyle;rounded=0;orthogonalLoop=1;jettySize=auto;html=1;entryX=0;entryY=0.25;entryDx=0;entryDy=0;endFill=0;" parent="WIyWlLk6GJQsqaUBKTNV-1" source="Y8OMOmDXyRQ8DpYTq-QE-20" target="Y8OMOmDXyRQ8DpYTq-QE-36" edge="1"><mxGeometry relative="1" as="geometry"/></mxCell><mxCell id="Y8OMOmDXyRQ8DpYTq-QE-121" style="edgeStyle=orthogonalEdgeStyle;rounded=0;orthogonalLoop=1;jettySize=auto;html=1;entryX=0;entryY=0.25;entryDx=0;entryDy=0;endFill=0;" parent="WIyWlLk6GJQsqaUBKTNV-1" source="Y8OMOmDXyRQ8DpYTq-QE-20" target="Y8OMOmDXyRQ8DpYTq-QE-40" edge="1"><mxGeometry relative="1" as="geometry"/></mxCell><mxCell id="Y8OMOmDXyRQ8DpYTq-QE-124" style="edgeStyle=orthogonalEdgeStyle;rounded=0;orthogonalLoop=1;jettySize=auto;html=1;entryX=0;entryY=0.128;entryDx=0;entryDy=0;entryPerimeter=0;endFill=0;" parent="WIyWlLk6GJQsqaUBKTNV-1" source="Y8OMOmDXyRQ8DpYTq-QE-20" target="Y8OMOmDXyRQ8DpYTq-QE-44" edge="1"><mxGeometry relative="1" as="geometry"/></mxCell><mxCell id="Y8OMOmDXyRQ8DpYTq-QE-125" style="edgeStyle=orthogonalEdgeStyle;rounded=0;orthogonalLoop=1;jettySize=auto;html=1;entryX=0;entryY=0.25;entryDx=0;entryDy=0;endFill=0;" parent="WIyWlLk6GJQsqaUBKTNV-1" source="Y8OMOmDXyRQ8DpYTq-QE-20" target="Y8OMOmDXyRQ8DpYTq-QE-48" edge="1"><mxGeometry relative="1" as="geometry"/></mxCell><mxCell id="Y8OMOmDXyRQ8DpYTq-QE-20" value="Statement" style="swimlane;fontStyle=3;align=center;verticalAlign=top;childLayout=stackLayout;horizontal=1;startSize=26;horizontalStack=0;resizeParent=1;resizeParentMax=0;resizeLast=0;collapsible=1;marginBottom=0;" parent="WIyWlLk6GJQsqaUBKTNV-1" vertex="1"><mxGeometry x="30" y="493" width="160" height="60" as="geometry"/></mxCell><mxCell id="Y8OMOmDXyRQ8DpYTq-QE-22" value="" style="line;strokeWidth=1;fillColor=none;align=left;verticalAlign=middle;spacingTop=-1;spacingLeft=3;spacingRight=3;rotatable=0;labelPosition=right;points=[];portConstraint=eastwest;strokeColor=inherit;" parent="Y8OMOmDXyRQ8DpYTq-QE-20" vertex="1"><mxGeometry y="26" width="160" height="8" as="geometry"/></mxCell><mxCell id="Y8OMOmDXyRQ8DpYTq-QE-23" value="+ codeGen(): void" style="text;strokeColor=none;fillColor=none;align=left;verticalAlign=top;spacingLeft=4;spacingRight=4;overflow=hidden;rotatable=0;points=[[0,0.5],[1,0.5]];portConstraint=eastwest;fontStyle=0" parent="Y8OMOmDXyRQ8DpYTq-QE-20" vertex="1"><mxGeometry y="34" width="160" height="26" as="geometry"/></mxCell><mxCell id="Y8OMOmDXyRQ8DpYTq-QE-28" value="Block" style="swimlane;fontStyle=1;align=center;verticalAlign=top;childLayout=stackLayout;horizontal=1;startSize=26;horizontalStack=0;resizeParent=1;resizeParentMax=0;resizeLast=0;collapsible=1;marginBottom=0;" parent="WIyWlLk6GJQsqaUBKTNV-1" vertex="1"><mxGeometry x="180" y="560" width="160" height="86" as="geometry"/></mxCell><mxCell id="Y8OMOmDXyRQ8DpYTq-QE-29" value="+ blocks: Vector&lt;Statement&gt;" style="text;strokeColor=none;fillColor=none;align=left;verticalAlign=top;spacingLeft=4;spacingRight=4;overflow=hidden;rotatable=0;points=[[0,0.5],[1,0.5]];portConstraint=eastwest;" parent="Y8OMOmDXyRQ8DpYTq-QE-28" vertex="1"><mxGeometry y="26" width="160" height="26" as="geometry"/></mxCell><mxCell id="Y8OMOmDXyRQ8DpYTq-QE-169" value="+ blocks: Vector&lt;Statement&gt;" style="text;strokeColor=none;fillColor=none;align=left;verticalAlign=top;spacingLeft=4;spacingRight=4;overflow=hidden;rotatable=0;points=[[0,0.5],[1,0.5]];portConstraint=eastwest;" parent="Y8OMOmDXyRQ8DpYTq-QE-28" vertex="1"><mxGeometry y="52" width="160" height="26" as="geometry"/></mxCell><mxCell id="Y8OMOmDXyRQ8DpYTq-QE-30" value="" style="line;strokeWidth=1;fillColor=none;align=left;verticalAlign=middle;spacingTop=-1;spacingLeft=3;spacingRight=3;rotatable=0;labelPosition=right;points=[];portConstraint=eastwest;strokeColor=inherit;" parent="Y8OMOmDXyRQ8DpYTq-QE-28" vertex="1"><mxGeometry y="78" width="160" height="8" as="geometry"/></mxCell><mxCell id="Y8OMOmDXyRQ8DpYTq-QE-32" value="Return" style="swimlane;fontStyle=1;align=center;verticalAlign=top;childLayout=stackLayout;horizontal=1;startSize=26;horizontalStack=0;resizeParent=1;resizeParentMax=0;resizeLast=0;collapsible=1;marginBottom=0;" parent="WIyWlLk6GJQsqaUBKTNV-1" vertex="1"><mxGeometry x="180" y="653" width="160" height="60" as="geometry"/></mxCell><mxCell id="Y8OMOmDXyRQ8DpYTq-QE-33" value="+ rExpr: Expression" style="text;strokeColor=none;fillColor=none;align=left;verticalAlign=top;spacingLeft=4;spacingRight=4;overflow=hidden;rotatable=0;points=[[0,0.5],[1,0.5]];portConstraint=eastwest;" parent="Y8OMOmDXyRQ8DpYTq-QE-32" vertex="1"><mxGeometry y="26" width="160" height="26" as="geometry"/></mxCell><mxCell id="Y8OMOmDXyRQ8DpYTq-QE-34" value="" style="line;strokeWidth=1;fillColor=none;align=left;verticalAlign=middle;spacingTop=-1;spacingLeft=3;spacingRight=3;rotatable=0;labelPosition=right;points=[];portConstraint=eastwest;strokeColor=inherit;" parent="Y8OMOmDXyRQ8DpYTq-QE-32" vertex="1"><mxGeometry y="52" width="160" height="8" as="geometry"/></mxCell><mxCell id="Y8OMOmDXyRQ8DpYTq-QE-36" value="While" style="swimlane;fontStyle=1;align=center;verticalAlign=top;childLayout=stackLayout;horizontal=1;startSize=26;horizontalStack=0;resizeParent=1;resizeParentMax=0;resizeLast=0;collapsible=1;marginBottom=0;" parent="WIyWlLk6GJQsqaUBKTNV-1" vertex="1"><mxGeometry x="180" y="730" width="160" height="68" as="geometry"/></mxCell><mxCell id="Y8OMOmDXyRQ8DpYTq-QE-37" value="+ bool: boolExpr&#10;+ blck: Block" style="text;strokeColor=none;fillColor=none;align=left;verticalAlign=top;spacingLeft=4;spacingRight=4;overflow=hidden;rotatable=0;points=[[0,0.5],[1,0.5]];portConstraint=eastwest;" parent="Y8OMOmDXyRQ8DpYTq-QE-36" vertex="1"><mxGeometry y="26" width="160" height="34" as="geometry"/></mxCell><mxCell id="Y8OMOmDXyRQ8DpYTq-QE-38" value="" style="line;strokeWidth=1;fillColor=none;align=left;verticalAlign=middle;spacingTop=-1;spacingLeft=3;spacingRight=3;rotatable=0;labelPosition=right;points=[];portConstraint=eastwest;strokeColor=inherit;" parent="Y8OMOmDXyRQ8DpYTq-QE-36" vertex="1"><mxGeometry y="60" width="160" height="8" as="geometry"/></mxCell><mxCell id="Y8OMOmDXyRQ8DpYTq-QE-40" value="If" style="swimlane;fontStyle=1;align=center;verticalAlign=top;childLayout=stackLayout;horizontal=1;startSize=26;horizontalStack=0;resizeParent=1;resizeParentMax=0;resizeLast=0;collapsible=1;marginBottom=0;" parent="WIyWlLk6GJQsqaUBKTNV-1" vertex="1"><mxGeometry x="180" y="810" width="160" height="88" as="geometry"/></mxCell><mxCell id="Y8OMOmDXyRQ8DpYTq-QE-41" value="+ bool: boolExpr&#10;+ ifBlck: Block&#10;+ elseBlck: Block" style="text;strokeColor=none;fillColor=none;align=left;verticalAlign=top;spacingLeft=4;spacingRight=4;overflow=hidden;rotatable=0;points=[[0,0.5],[1,0.5]];portConstraint=eastwest;" parent="Y8OMOmDXyRQ8DpYTq-QE-40" vertex="1"><mxGeometry y="26" width="160" height="54" as="geometry"/></mxCell><mxCell id="Y8OMOmDXyRQ8DpYTq-QE-42" value="" style="line;strokeWidth=1;fillColor=none;align=left;verticalAlign=middle;spacingTop=-1;spacingLeft=3;spacingRight=3;rotatable=0;labelPosition=right;points=[];portConstraint=eastwest;strokeColor=inherit;" parent="Y8OMOmDXyRQ8DpYTq-QE-40" vertex="1"><mxGeometry y="80" width="160" height="8" as="geometry"/></mxCell><mxCell id="Y8OMOmDXyRQ8DpYTq-QE-44" value="LocalVarDecl" style="swimlane;fontStyle=1;align=center;verticalAlign=top;childLayout=stackLayout;horizontal=1;startSize=26;horizontalStack=0;resizeParent=1;resizeParentMax=0;resizeLast=0;collapsible=1;marginBottom=0;" parent="WIyWlLk6GJQsqaUBKTNV-1" vertex="1"><mxGeometry x="180" y="910" width="160" height="78" as="geometry"/></mxCell><mxCell id="Y8OMOmDXyRQ8DpYTq-QE-45" value="+ name: String&#10;+ type: Type" style="text;strokeColor=none;fillColor=none;align=left;verticalAlign=top;spacingLeft=4;spacingRight=4;overflow=hidden;rotatable=0;points=[[0,0.5],[1,0.5]];portConstraint=eastwest;" parent="Y8OMOmDXyRQ8DpYTq-QE-44" vertex="1"><mxGeometry y="26" width="160" height="44" as="geometry"/></mxCell><mxCell id="Y8OMOmDXyRQ8DpYTq-QE-46" value="" style="line;strokeWidth=1;fillColor=none;align=left;verticalAlign=middle;spacingTop=-1;spacingLeft=3;spacingRight=3;rotatable=0;labelPosition=right;points=[];portConstraint=eastwest;strokeColor=inherit;" parent="Y8OMOmDXyRQ8DpYTq-QE-44" vertex="1"><mxGeometry y="70" width="160" height="8" as="geometry"/></mxCell><mxCell id="Y8OMOmDXyRQ8DpYTq-QE-48" value="StmtExprStmt" style="swimlane;fontStyle=1;align=center;verticalAlign=top;childLayout=stackLayout;horizontal=1;startSize=26;horizontalStack=0;resizeParent=1;resizeParentMax=0;resizeLast=0;collapsible=1;marginBottom=0;" parent="WIyWlLk6GJQsqaUBKTNV-1" vertex="1"><mxGeometry x="180" y="1000" width="190" height="60" as="geometry"/></mxCell><mxCell id="Y8OMOmDXyRQ8DpYTq-QE-49" value="+ stmtExpr: StatementExpression" style="text;strokeColor=none;fillColor=none;align=left;verticalAlign=top;spacingLeft=4;spacingRight=4;overflow=hidden;rotatable=0;points=[[0,0.5],[1,0.5]];portConstraint=eastwest;" parent="Y8OMOmDXyRQ8DpYTq-QE-48" vertex="1"><mxGeometry y="26" width="190" height="26" as="geometry"/></mxCell><mxCell id="Y8OMOmDXyRQ8DpYTq-QE-50" value="" style="line;strokeWidth=1;fillColor=none;align=left;verticalAlign=middle;spacingTop=-1;spacingLeft=3;spacingRight=3;rotatable=0;labelPosition=right;points=[];portConstraint=eastwest;strokeColor=inherit;" parent="Y8OMOmDXyRQ8DpYTq-QE-48" vertex="1"><mxGeometry y="52" width="190" height="8" as="geometry"/></mxCell><mxCell id="Y8OMOmDXyRQ8DpYTq-QE-57" value="This" style="swimlane;fontStyle=1;align=center;verticalAlign=top;childLayout=stackLayout;horizontal=1;startSize=26;horizontalStack=0;resizeParent=1;resizeParentMax=0;resizeLast=0;collapsible=1;marginBottom=0;" parent="WIyWlLk6GJQsqaUBKTNV-1" vertex="1"><mxGeometry x="625" y="580" width="160" height="60" as="geometry"/></mxCell><mxCell id="Y8OMOmDXyRQ8DpYTq-QE-58" value="+ self:  Class" style="text;strokeColor=none;fillColor=none;align=left;verticalAlign=top;spacingLeft=4;spacingRight=4;overflow=hidden;rotatable=0;points=[[0,0.5],[1,0.5]];portConstraint=eastwest;" parent="Y8OMOmDXyRQ8DpYTq-QE-57" vertex="1"><mxGeometry y="26" width="160" height="26" as="geometry"/></mxCell><mxCell id="Y8OMOmDXyRQ8DpYTq-QE-59" value="" style="line;strokeWidth=1;fillColor=none;align=left;verticalAlign=middle;spacingTop=-1;spacingLeft=3;spacingRight=3;rotatable=0;labelPosition=right;points=[];portConstraint=eastwest;strokeColor=inherit;" parent="Y8OMOmDXyRQ8DpYTq-QE-57" vertex="1"><mxGeometry y="52" width="160" height="8" as="geometry"/></mxCell><mxCell id="Y8OMOmDXyRQ8DpYTq-QE-149" style="edgeStyle=orthogonalEdgeStyle;rounded=0;orthogonalLoop=1;jettySize=auto;html=1;entryX=1;entryY=0.185;entryDx=0;entryDy=0;entryPerimeter=0;" parent="WIyWlLk6GJQsqaUBKTNV-1" source="Y8OMOmDXyRQ8DpYTq-QE-60" target="Y8OMOmDXyRQ8DpYTq-QE-1" edge="1"><mxGeometry relative="1" as="geometry"><Array as="points"><mxPoint x="830" y="685"/><mxPoint x="830" y="90"/></Array></mxGeometry></mxCell><mxCell id="Y8OMOmDXyRQ8DpYTq-QE-60" value="Super" style="swimlane;fontStyle=1;align=center;verticalAlign=top;childLayout=stackLayout;horizontal=1;startSize=26;horizontalStack=0;resizeParent=1;resizeParentMax=0;resizeLast=0;collapsible=1;marginBottom=0;" parent="WIyWlLk6GJQsqaUBKTNV-1" vertex="1"><mxGeometry x="625" y="655" width="160" height="60" as="geometry"/></mxCell><mxCell id="Y8OMOmDXyRQ8DpYTq-QE-61" value="+ parent: Class" style="text;strokeColor=none;fillColor=none;align=left;verticalAlign=top;spacingLeft=4;spacingRight=4;overflow=hidden;rotatable=0;points=[[0,0.5],[1,0.5]];portConstraint=eastwest;" parent="Y8OMOmDXyRQ8DpYTq-QE-60" vertex="1"><mxGeometry y="26" width="160" height="26" as="geometry"/></mxCell><mxCell id="Y8OMOmDXyRQ8DpYTq-QE-62" value="" style="line;strokeWidth=1;fillColor=none;align=left;verticalAlign=middle;spacingTop=-1;spacingLeft=3;spacingRight=3;rotatable=0;labelPosition=right;points=[];portConstraint=eastwest;strokeColor=inherit;" parent="Y8OMOmDXyRQ8DpYTq-QE-60" vertex="1"><mxGeometry y="52" width="160" height="8" as="geometry"/></mxCell><mxCell id="Y8OMOmDXyRQ8DpYTq-QE-63" value="LocalOrFieldVar" style="swimlane;fontStyle=1;align=center;verticalAlign=top;childLayout=stackLayout;horizontal=1;startSize=26;horizontalStack=0;resizeParent=1;resizeParentMax=0;resizeLast=0;collapsible=1;marginBottom=0;" parent="WIyWlLk6GJQsqaUBKTNV-1" vertex="1"><mxGeometry x="625" y="734" width="160" height="60" as="geometry"/></mxCell><mxCell id="Y8OMOmDXyRQ8DpYTq-QE-64" value="+ name: String" style="text;strokeColor=none;fillColor=none;align=left;verticalAlign=top;spacingLeft=4;spacingRight=4;overflow=hidden;rotatable=0;points=[[0,0.5],[1,0.5]];portConstraint=eastwest;" parent="Y8OMOmDXyRQ8DpYTq-QE-63" vertex="1"><mxGeometry y="26" width="160" height="26" as="geometry"/></mxCell><mxCell id="Y8OMOmDXyRQ8DpYTq-QE-65" value="" style="line;strokeWidth=1;fillColor=none;align=left;verticalAlign=middle;spacingTop=-1;spacingLeft=3;spacingRight=3;rotatable=0;labelPosition=right;points=[];portConstraint=eastwest;strokeColor=inherit;" parent="Y8OMOmDXyRQ8DpYTq-QE-63" vertex="1"><mxGeometry y="52" width="160" height="8" as="geometry"/></mxCell><mxCell id="Y8OMOmDXyRQ8DpYTq-QE-73" value="InstVar" style="swimlane;fontStyle=1;align=center;verticalAlign=top;childLayout=stackLayout;horizontal=1;startSize=26;horizontalStack=0;resizeParent=1;resizeParentMax=0;resizeLast=0;collapsible=1;marginBottom=0;" parent="WIyWlLk6GJQsqaUBKTNV-1" vertex="1"><mxGeometry x="625" y="810" width="160" height="78" as="geometry"/></mxCell><mxCell id="Y8OMOmDXyRQ8DpYTq-QE-74" value="+ inst: LocalOrFieldVar&#10;+ name: String" style="text;strokeColor=none;fillColor=none;align=left;verticalAlign=top;spacingLeft=4;spacingRight=4;overflow=hidden;rotatable=0;points=[[0,0.5],[1,0.5]];portConstraint=eastwest;" parent="Y8OMOmDXyRQ8DpYTq-QE-73" vertex="1"><mxGeometry y="26" width="160" height="44" as="geometry"/></mxCell><mxCell id="Y8OMOmDXyRQ8DpYTq-QE-75" value="" style="line;strokeWidth=1;fillColor=none;align=left;verticalAlign=middle;spacingTop=-1;spacingLeft=3;spacingRight=3;rotatable=0;labelPosition=right;points=[];portConstraint=eastwest;strokeColor=inherit;" parent="Y8OMOmDXyRQ8DpYTq-QE-73" vertex="1"><mxGeometry y="70" width="160" height="8" as="geometry"/></mxCell><mxCell id="Y8OMOmDXyRQ8DpYTq-QE-151" style="edgeStyle=orthogonalEdgeStyle;rounded=0;orthogonalLoop=1;jettySize=auto;html=1;entryX=1;entryY=0.25;entryDx=0;entryDy=0;" parent="WIyWlLk6GJQsqaUBKTNV-1" source="Y8OMOmDXyRQ8DpYTq-QE-76" target="Y8OMOmDXyRQ8DpYTq-QE-16" edge="1"><mxGeometry relative="1" as="geometry"><Array as="points"><mxPoint x="930" y="949"/><mxPoint x="930" y="508"/></Array></mxGeometry></mxCell><mxCell id="Y8OMOmDXyRQ8DpYTq-QE-76" value="Unary" style="swimlane;fontStyle=1;align=center;verticalAlign=top;childLayout=stackLayout;horizontal=1;startSize=26;horizontalStack=0;resizeParent=1;resizeParentMax=0;resizeLast=0;collapsible=1;marginBottom=0;" parent="WIyWlLk6GJQsqaUBKTNV-1" vertex="1"><mxGeometry x="625" y="910" width="160" height="78" as="geometry"/></mxCell><mxCell id="Y8OMOmDXyRQ8DpYTq-QE-77" value="+ expr: Expression&#10;+ eval: String" style="text;strokeColor=none;fillColor=none;align=left;verticalAlign=top;spacingLeft=4;spacingRight=4;overflow=hidden;rotatable=0;points=[[0,0.5],[1,0.5]];portConstraint=eastwest;" parent="Y8OMOmDXyRQ8DpYTq-QE-76" vertex="1"><mxGeometry y="26" width="160" height="44" as="geometry"/></mxCell><mxCell id="Y8OMOmDXyRQ8DpYTq-QE-78" value="" style="line;strokeWidth=1;fillColor=none;align=left;verticalAlign=middle;spacingTop=-1;spacingLeft=3;spacingRight=3;rotatable=0;labelPosition=right;points=[];portConstraint=eastwest;strokeColor=inherit;" parent="Y8OMOmDXyRQ8DpYTq-QE-76" vertex="1"><mxGeometry y="70" width="160" height="8" as="geometry"/></mxCell><mxCell id="Y8OMOmDXyRQ8DpYTq-QE-152" style="edgeStyle=orthogonalEdgeStyle;rounded=0;orthogonalLoop=1;jettySize=auto;html=1;entryX=1;entryY=0.25;entryDx=0;entryDy=0;" parent="WIyWlLk6GJQsqaUBKTNV-1" source="Y8OMOmDXyRQ8DpYTq-QE-80" target="Y8OMOmDXyRQ8DpYTq-QE-16" edge="1"><mxGeometry relative="1" as="geometry"><Array as="points"><mxPoint x="930" y="1052"/><mxPoint x="930" y="508"/></Array></mxGeometry></mxCell><mxCell id="Y8OMOmDXyRQ8DpYTq-QE-80" value="Binary" style="swimlane;fontStyle=1;align=center;verticalAlign=top;childLayout=stackLayout;horizontal=1;startSize=26;horizontalStack=0;resizeParent=1;resizeParentMax=0;resizeLast=0;collapsible=1;marginBottom=0;" parent="WIyWlLk6GJQsqaUBKTNV-1" vertex="1"><mxGeometry x="625" y="1008" width="160" height="88" as="geometry"/></mxCell><mxCell id="Y8OMOmDXyRQ8DpYTq-QE-81" value="+ expr1: Expression&#10;+ expr2: Expression&#10;+ eval: String" style="text;strokeColor=none;fillColor=none;align=left;verticalAlign=top;spacingLeft=4;spacingRight=4;overflow=hidden;rotatable=0;points=[[0,0.5],[1,0.5]];portConstraint=eastwest;" parent="Y8OMOmDXyRQ8DpYTq-QE-80" vertex="1"><mxGeometry y="26" width="160" height="54" as="geometry"/></mxCell><mxCell id="Y8OMOmDXyRQ8DpYTq-QE-82" value="" style="line;strokeWidth=1;fillColor=none;align=left;verticalAlign=middle;spacingTop=-1;spacingLeft=3;spacingRight=3;rotatable=0;labelPosition=right;points=[];portConstraint=eastwest;strokeColor=inherit;" parent="Y8OMOmDXyRQ8DpYTq-QE-80" vertex="1"><mxGeometry y="80" width="160" height="8" as="geometry"/></mxCell><mxCell id="Y8OMOmDXyRQ8DpYTq-QE-137" style="edgeStyle=orthogonalEdgeStyle;rounded=0;orthogonalLoop=1;jettySize=auto;html=1;entryX=0;entryY=0.25;entryDx=0;entryDy=0;endFill=0;" parent="WIyWlLk6GJQsqaUBKTNV-1" source="Y8OMOmDXyRQ8DpYTq-QE-86" target="Y8OMOmDXyRQ8DpYTq-QE-98" edge="1"><mxGeometry relative="1" as="geometry"/></mxCell><mxCell id="Y8OMOmDXyRQ8DpYTq-QE-138" style="edgeStyle=orthogonalEdgeStyle;rounded=0;orthogonalLoop=1;jettySize=auto;html=1;entryX=0;entryY=0.25;entryDx=0;entryDy=0;endFill=0;" parent="WIyWlLk6GJQsqaUBKTNV-1" source="Y8OMOmDXyRQ8DpYTq-QE-86" target="Y8OMOmDXyRQ8DpYTq-QE-101" edge="1"><mxGeometry relative="1" as="geometry"/></mxCell><mxCell id="Y8OMOmDXyRQ8DpYTq-QE-139" style="edgeStyle=orthogonalEdgeStyle;rounded=0;orthogonalLoop=1;jettySize=auto;html=1;entryX=0;entryY=0.25;entryDx=0;entryDy=0;endFill=0;" parent="WIyWlLk6GJQsqaUBKTNV-1" source="Y8OMOmDXyRQ8DpYTq-QE-86" target="Y8OMOmDXyRQ8DpYTq-QE-104" edge="1"><mxGeometry relative="1" as="geometry"/></mxCell><mxCell id="Y8OMOmDXyRQ8DpYTq-QE-86" value="StatementExpression" style="swimlane;fontStyle=3;align=center;verticalAlign=top;childLayout=stackLayout;horizontal=1;startSize=26;horizontalStack=0;resizeParent=1;resizeParentMax=0;resizeLast=0;collapsible=1;marginBottom=0;" parent="WIyWlLk6GJQsqaUBKTNV-1" vertex="1"><mxGeometry x="330" y="1290" width="160" height="34" as="geometry"/></mxCell><mxCell id="Y8OMOmDXyRQ8DpYTq-QE-87" value="" style="line;strokeWidth=1;fillColor=none;align=left;verticalAlign=middle;spacingTop=-1;spacingLeft=3;spacingRight=3;rotatable=0;labelPosition=right;points=[];portConstraint=eastwest;strokeColor=inherit;" parent="Y8OMOmDXyRQ8DpYTq-QE-86" vertex="1"><mxGeometry y="26" width="160" height="8" as="geometry"/></mxCell><mxCell id="Y8OMOmDXyRQ8DpYTq-QE-140" style="edgeStyle=orthogonalEdgeStyle;rounded=0;orthogonalLoop=1;jettySize=auto;html=1;entryX=1;entryY=0.25;entryDx=0;entryDy=0;" parent="WIyWlLk6GJQsqaUBKTNV-1" source="Y8OMOmDXyRQ8DpYTq-QE-98" target="Y8OMOmDXyRQ8DpYTq-QE-16" edge="1"><mxGeometry relative="1" as="geometry"><Array as="points"><mxPoint x="930" y="1384"/><mxPoint x="930" y="508"/></Array></mxGeometry></mxCell><mxCell id="Y8OMOmDXyRQ8DpYTq-QE-98" value="Assign" style="swimlane;fontStyle=1;align=center;verticalAlign=top;childLayout=stackLayout;horizontal=1;startSize=26;horizontalStack=0;resizeParent=1;resizeParentMax=0;resizeLast=0;collapsible=1;marginBottom=0;" parent="WIyWlLk6GJQsqaUBKTNV-1" vertex="1"><mxGeometry x="470" y="1340" width="160" height="88" as="geometry"/></mxCell><mxCell id="Y8OMOmDXyRQ8DpYTq-QE-99" value="+ as2Expr: Expression&#10;+ asFromExpr: Expression" style="text;strokeColor=none;fillColor=none;align=left;verticalAlign=top;spacingLeft=4;spacingRight=4;overflow=hidden;rotatable=0;points=[[0,0.5],[1,0.5]];portConstraint=eastwest;" parent="Y8OMOmDXyRQ8DpYTq-QE-98" vertex="1"><mxGeometry y="26" width="160" height="54" as="geometry"/></mxCell><mxCell id="Y8OMOmDXyRQ8DpYTq-QE-100" value="" style="line;strokeWidth=1;fillColor=none;align=left;verticalAlign=middle;spacingTop=-1;spacingLeft=3;spacingRight=3;rotatable=0;labelPosition=right;points=[];portConstraint=eastwest;strokeColor=inherit;" parent="Y8OMOmDXyRQ8DpYTq-QE-98" vertex="1"><mxGeometry y="80" width="160" height="8" as="geometry"/></mxCell><mxCell id="Y8OMOmDXyRQ8DpYTq-QE-142" style="edgeStyle=orthogonalEdgeStyle;rounded=0;orthogonalLoop=1;jettySize=auto;html=1;entryX=1;entryY=0.25;entryDx=0;entryDy=0;" parent="WIyWlLk6GJQsqaUBKTNV-1" source="Y8OMOmDXyRQ8DpYTq-QE-101" target="Y8OMOmDXyRQ8DpYTq-QE-16" edge="1"><mxGeometry relative="1" as="geometry"><Array as="points"><mxPoint x="930" y="1479"/><mxPoint x="930" y="508"/></Array></mxGeometry></mxCell><mxCell id="Y8OMOmDXyRQ8DpYTq-QE-146" style="edgeStyle=orthogonalEdgeStyle;rounded=0;orthogonalLoop=1;jettySize=auto;html=1;entryX=1;entryY=0.25;entryDx=0;entryDy=0;" parent="WIyWlLk6GJQsqaUBKTNV-1" source="Y8OMOmDXyRQ8DpYTq-QE-101" target="Y8OMOmDXyRQ8DpYTq-QE-12" edge="1"><mxGeometry relative="1" as="geometry"><Array as="points"><mxPoint x="1000" y="1500"/><mxPoint x="1000" y="395"/></Array></mxGeometry></mxCell><mxCell id="Y8OMOmDXyRQ8DpYTq-QE-101" value="New" style="swimlane;fontStyle=1;align=center;verticalAlign=top;childLayout=stackLayout;horizontal=1;startSize=26;horizontalStack=0;resizeParent=1;resizeParentMax=0;resizeLast=0;collapsible=1;marginBottom=0;" parent="WIyWlLk6GJQsqaUBKTNV-1" vertex="1"><mxGeometry x="470" y="1440" width="190" height="78" as="geometry"/></mxCell><mxCell id="Y8OMOmDXyRQ8DpYTq-QE-102" value="+ type: Type&#10;+ params: Vector&lt;Expression&gt;" style="text;strokeColor=none;fillColor=none;align=left;verticalAlign=top;spacingLeft=4;spacingRight=4;overflow=hidden;rotatable=0;points=[[0,0.5],[1,0.5]];portConstraint=eastwest;" parent="Y8OMOmDXyRQ8DpYTq-QE-101" vertex="1"><mxGeometry y="26" width="190" height="44" as="geometry"/></mxCell><mxCell id="Y8OMOmDXyRQ8DpYTq-QE-103" value="" style="line;strokeWidth=1;fillColor=none;align=left;verticalAlign=middle;spacingTop=-1;spacingLeft=3;spacingRight=3;rotatable=0;labelPosition=right;points=[];portConstraint=eastwest;strokeColor=inherit;" parent="Y8OMOmDXyRQ8DpYTq-QE-101" vertex="1"><mxGeometry y="70" width="190" height="8" as="geometry"/></mxCell><mxCell id="Y8OMOmDXyRQ8DpYTq-QE-145" style="edgeStyle=orthogonalEdgeStyle;rounded=0;orthogonalLoop=1;jettySize=auto;html=1;entryX=1;entryY=0.25;entryDx=0;entryDy=0;" parent="WIyWlLk6GJQsqaUBKTNV-1" source="Y8OMOmDXyRQ8DpYTq-QE-104" target="Y8OMOmDXyRQ8DpYTq-QE-16" edge="1"><mxGeometry relative="1" as="geometry"><Array as="points"><mxPoint x="930" y="1584"/><mxPoint x="930" y="508"/></Array></mxGeometry></mxCell><mxCell id="Y8OMOmDXyRQ8DpYTq-QE-104" value="MethodCall" style="swimlane;fontStyle=1;align=center;verticalAlign=top;childLayout=stackLayout;horizontal=1;startSize=26;horizontalStack=0;resizeParent=1;resizeParentMax=0;resizeLast=0;collapsible=1;marginBottom=0;" parent="WIyWlLk6GJQsqaUBKTNV-1" vertex="1"><mxGeometry x="470" y="1540" width="190" height="88" as="geometry"/></mxCell><mxCell id="Y8OMOmDXyRQ8DpYTq-QE-105" value="+ obj: Expression&#10;+ meth: String&#10;+ params: Vector&lt;Expression&gt;" style="text;strokeColor=none;fillColor=none;align=left;verticalAlign=top;spacingLeft=4;spacingRight=4;overflow=hidden;rotatable=0;points=[[0,0.5],[1,0.5]];portConstraint=eastwest;" parent="Y8OMOmDXyRQ8DpYTq-QE-104" vertex="1"><mxGeometry y="26" width="190" height="54" as="geometry"/></mxCell><mxCell id="Y8OMOmDXyRQ8DpYTq-QE-106" value="" style="line;strokeWidth=1;fillColor=none;align=left;verticalAlign=middle;spacingTop=-1;spacingLeft=3;spacingRight=3;rotatable=0;labelPosition=right;points=[];portConstraint=eastwest;strokeColor=inherit;" parent="Y8OMOmDXyRQ8DpYTq-QE-104" vertex="1"><mxGeometry y="80" width="190" height="8" as="geometry"/></mxCell><mxCell id="Y8OMOmDXyRQ8DpYTq-QE-107" value="StmtExprExpr" style="swimlane;fontStyle=1;align=center;verticalAlign=top;childLayout=stackLayout;horizontal=1;startSize=26;horizontalStack=0;resizeParent=1;resizeParentMax=0;resizeLast=0;collapsible=1;marginBottom=0;" parent="WIyWlLk6GJQsqaUBKTNV-1" vertex="1"><mxGeometry x="625" y="1120" width="190" height="60" as="geometry"/></mxCell><mxCell id="Y8OMOmDXyRQ8DpYTq-QE-108" value="+ stmtExpr: StatementExpression" style="text;strokeColor=none;fillColor=none;align=left;verticalAlign=top;spacingLeft=4;spacingRight=4;overflow=hidden;rotatable=0;points=[[0,0.5],[1,0.5]];portConstraint=eastwest;" parent="Y8OMOmDXyRQ8DpYTq-QE-107" vertex="1"><mxGeometry y="26" width="190" height="26" as="geometry"/></mxCell><mxCell id="Y8OMOmDXyRQ8DpYTq-QE-109" value="" style="line;strokeWidth=1;fillColor=none;align=left;verticalAlign=middle;spacingTop=-1;spacingLeft=3;spacingRight=3;rotatable=0;labelPosition=right;points=[];portConstraint=eastwest;strokeColor=inherit;" parent="Y8OMOmDXyRQ8DpYTq-QE-107" vertex="1"><mxGeometry y="52" width="190" height="8" as="geometry"/></mxCell><mxCell id="Y8OMOmDXyRQ8DpYTq-QE-110" value="Parameter" style="swimlane;fontStyle=1;align=center;verticalAlign=top;childLayout=stackLayout;horizontal=1;startSize=26;horizontalStack=0;resizeParent=1;resizeParentMax=0;resizeLast=0;collapsible=1;marginBottom=0;" parent="WIyWlLk6GJQsqaUBKTNV-1" vertex="1"><mxGeometry x="290" y="320" width="160" height="78" as="geometry"/></mxCell><mxCell id="Y8OMOmDXyRQ8DpYTq-QE-111" value="+ name: String&#10;+ type: Type" style="text;strokeColor=none;fillColor=none;align=left;verticalAlign=top;spacingLeft=4;spacingRight=4;overflow=hidden;rotatable=0;points=[[0,0.5],[1,0.5]];portConstraint=eastwest;" parent="Y8OMOmDXyRQ8DpYTq-QE-110" vertex="1"><mxGeometry y="26" width="160" height="44" as="geometry"/></mxCell><mxCell id="Y8OMOmDXyRQ8DpYTq-QE-112" value="" style="line;strokeWidth=1;fillColor=none;align=left;verticalAlign=middle;spacingTop=-1;spacingLeft=3;spacingRight=3;rotatable=0;labelPosition=right;points=[];portConstraint=eastwest;strokeColor=inherit;" parent="Y8OMOmDXyRQ8DpYTq-QE-110" vertex="1"><mxGeometry y="70" width="160" height="8" as="geometry"/></mxCell><mxCell id="Y8OMOmDXyRQ8DpYTq-QE-148" style="edgeStyle=orthogonalEdgeStyle;rounded=0;orthogonalLoop=1;jettySize=auto;html=1;entryX=1;entryY=0.25;entryDx=0;entryDy=0;" parent="WIyWlLk6GJQsqaUBKTNV-1" source="Y8OMOmDXyRQ8DpYTq-QE-58" target="Y8OMOmDXyRQ8DpYTq-QE-0" edge="1"><mxGeometry relative="1" as="geometry"><Array as="points"><mxPoint x="830" y="619"/><mxPoint x="830" y="88"/></Array></mxGeometry></mxCell><mxCell id="Y8OMOmDXyRQ8DpYTq-QE-150" style="edgeStyle=orthogonalEdgeStyle;rounded=0;orthogonalLoop=1;jettySize=auto;html=1;entryX=1;entryY=0.25;entryDx=0;entryDy=0;" parent="WIyWlLk6GJQsqaUBKTNV-1" source="Y8OMOmDXyRQ8DpYTq-QE-74" target="Y8OMOmDXyRQ8DpYTq-QE-63" edge="1"><mxGeometry relative="1" as="geometry"><Array as="points"><mxPoint x="805" y="858"/><mxPoint x="805" y="749"/></Array></mxGeometry></mxCell><mxCell id="Y8OMOmDXyRQ8DpYTq-QE-155" value="1" style="endArrow=open;html=1;endSize=12;startArrow=diamondThin;startSize=14;startFill=1;edgeStyle=orthogonalEdgeStyle;align=left;verticalAlign=bottom;rounded=0;exitX=0.5;exitY=1;exitDx=0;exitDy=0;entryX=1;entryY=0.25;entryDx=0;entryDy=0;" parent="WIyWlLk6GJQsqaUBKTNV-1" source="Y8OMOmDXyRQ8DpYTq-QE-107" target="Y8OMOmDXyRQ8DpYTq-QE-86" edge="1"><mxGeometry x="-0.8278" y="10" relative="1" as="geometry"><mxPoint x="510" y="1210" as="sourcePoint"/><mxPoint x="670" y="1210" as="targetPoint"/><mxPoint as="offset"/></mxGeometry></mxCell><mxCell id="Y8OMOmDXyRQ8DpYTq-QE-156" value="1" style="endArrow=open;html=1;endSize=12;startArrow=diamondThin;startSize=14;startFill=1;edgeStyle=orthogonalEdgeStyle;align=left;verticalAlign=bottom;rounded=0;entryX=0;entryY=0.25;entryDx=0;entryDy=0;exitX=0.5;exitY=1;exitDx=0;exitDy=0;" parent="WIyWlLk6GJQsqaUBKTNV-1" source="Y8OMOmDXyRQ8DpYTq-QE-48" target="Y8OMOmDXyRQ8DpYTq-QE-86" edge="1"><mxGeometry x="-0.8055" relative="1" as="geometry"><mxPoint x="270" y="1070" as="sourcePoint"/><mxPoint x="360" y="1180" as="targetPoint"/><Array as="points"><mxPoint x="270" y="1060"/><mxPoint x="270" y="1298"/></Array><mxPoint as="offset"/></mxGeometry></mxCell><mxCell id="Y8OMOmDXyRQ8DpYTq-QE-163" value="1" style="endArrow=open;html=1;endSize=12;startArrow=diamondThin;startSize=14;startFill=1;edgeStyle=orthogonalEdgeStyle;align=left;verticalAlign=bottom;rounded=0;exitX=1;exitY=0.5;exitDx=0;exitDy=0;entryX=0.5;entryY=0;entryDx=0;entryDy=0;" parent="WIyWlLk6GJQsqaUBKTNV-1" source="Y8OMOmDXyRQ8DpYTq-QE-111" target="Y8OMOmDXyRQ8DpYTq-QE-12" edge="1"><mxGeometry x="-1" y="3" relative="1" as="geometry"><mxPoint x="420" y="420" as="sourcePoint"/><mxPoint x="580" y="420" as="targetPoint"/></mxGeometry></mxCell><mxCell id="Y8OMOmDXyRQ8DpYTq-QE-164" value="1" style="endArrow=open;html=1;endSize=12;startArrow=diamondThin;startSize=14;startFill=1;edgeStyle=orthogonalEdgeStyle;align=left;verticalAlign=bottom;rounded=0;exitX=1;exitY=0.142;exitDx=0;exitDy=0;exitPerimeter=0;entryX=1;entryY=0.128;entryDx=0;entryDy=0;entryPerimeter=0;" parent="WIyWlLk6GJQsqaUBKTNV-1" source="Y8OMOmDXyRQ8DpYTq-QE-8" target="Y8OMOmDXyRQ8DpYTq-QE-110" edge="1"><mxGeometry x="-1" y="3" relative="1" as="geometry"><mxPoint x="420" y="420" as="sourcePoint"/><mxPoint x="580" y="420" as="targetPoint"/><Array as="points"><mxPoint x="500" y="215"/><mxPoint x="500" y="340"/></Array></mxGeometry></mxCell><mxCell id="Y8OMOmDXyRQ8DpYTq-QE-165" value="1" style="endArrow=open;html=1;endSize=12;startArrow=diamondThin;startSize=14;startFill=1;edgeStyle=orthogonalEdgeStyle;align=left;verticalAlign=bottom;rounded=0;exitX=0;exitY=0.186;exitDx=0;exitDy=0;exitPerimeter=0;" parent="WIyWlLk6GJQsqaUBKTNV-1" source="Y8OMOmDXyRQ8DpYTq-QE-4" target="Y8OMOmDXyRQ8DpYTq-QE-12" edge="1"><mxGeometry x="-1" y="3" relative="1" as="geometry"><mxPoint x="420" y="420" as="sourcePoint"/><mxPoint x="580" y="420" as="targetPoint"/><Array as="points"><mxPoint x="90" y="215"/><mxPoint x="90" y="180"/><mxPoint x="710" y="180"/></Array></mxGeometry></mxCell><mxCell id="Y8OMOmDXyRQ8DpYTq-QE-166" value="1" style="endArrow=open;html=1;endSize=12;startArrow=diamondThin;startSize=14;startFill=1;edgeStyle=orthogonalEdgeStyle;align=left;verticalAlign=bottom;rounded=0;exitX=1;exitY=0.5;exitDx=0;exitDy=0;entryX=0.833;entryY=0.015;entryDx=0;entryDy=0;entryPerimeter=0;" parent="WIyWlLk6GJQsqaUBKTNV-1" source="Y8OMOmDXyRQ8DpYTq-QE-1" target="Y8OMOmDXyRQ8DpYTq-QE-4" edge="1"><mxGeometry x="-0.3243" y="27" relative="1" as="geometry"><mxPoint x="420" y="340" as="sourcePoint"/><mxPoint x="580" y="340" as="targetPoint"/><mxPoint as="offset"/></mxGeometry></mxCell><mxCell id="Y8OMOmDXyRQ8DpYTq-QE-167" value="1" style="endArrow=open;html=1;endSize=12;startArrow=diamondThin;startSize=14;startFill=1;edgeStyle=orthogonalEdgeStyle;align=left;verticalAlign=bottom;rounded=0;exitX=1;exitY=0.5;exitDx=0;exitDy=0;" parent="WIyWlLk6GJQsqaUBKTNV-1" source="Y8OMOmDXyRQ8DpYTq-QE-1" target="Y8OMOmDXyRQ8DpYTq-QE-8" edge="1"><mxGeometry x="-0.8419" y="-33" relative="1" as="geometry"><mxPoint x="420" y="340" as="sourcePoint"/><mxPoint x="580" y="340" as="targetPoint"/><mxPoint as="offset"/></mxGeometry></mxCell><mxCell id="4" value="Program" style="swimlane;fontStyle=1;align=center;verticalAlign=top;childLayout=stackLayout;horizontal=1;startSize=26;horizontalStack=0;resizeParent=1;resizeParentMax=0;resizeLast=0;collapsible=1;marginBottom=0;" vertex="1" parent="WIyWlLk6GJQsqaUBKTNV-1"><mxGeometry x="60" y="-60" width="160" height="60" as="geometry"/></mxCell><mxCell id="5" value="+ classes: Vector&lt;Class&gt;" style="text;strokeColor=none;fillColor=none;align=left;verticalAlign=top;spacingLeft=4;spacingRight=4;overflow=hidden;rotatable=0;points=[[0,0.5],[1,0.5]];portConstraint=eastwest;" vertex="1" parent="4"><mxGeometry y="26" width="160" height="26" as="geometry"/></mxCell><mxCell id="6" value="" style="line;strokeWidth=1;fillColor=none;align=left;verticalAlign=middle;spacingTop=-1;spacingLeft=3;spacingRight=3;rotatable=0;labelPosition=right;points=[];portConstraint=eastwest;strokeColor=inherit;" vertex="1" parent="4"><mxGeometry y="52" width="160" height="8" as="geometry"/></mxCell><mxCell id="8" value="" style="endArrow=diamondThin;endFill=1;endSize=24;html=1;rounded=0;exitX=0.5;exitY=0;exitDx=0;exitDy=0;startArrow=open;startFill=0;" edge="1" parent="WIyWlLk6GJQsqaUBKTNV-1" source="Y8OMOmDXyRQ8DpYTq-QE-0" target="4"><mxGeometry width="160" relative="1" as="geometry"><mxPoint x="160" y="60" as="sourcePoint"/><mxPoint x="320" y="60" as="targetPoint"/></mxGeometry></mxCell></root></mxGraphModel></diagram></mxfile>